<svg xmlns="http://www.w3.org/2000/svg" viewBox="0 0 720 420" width="720" height="420" role="img" aria-labelledby="title desc"><title id="title">Consolidation spring analogy</title><desc id="desc">Drainage dissipates excess pore pressure while the soil skeleton takes more effective stress.</desc><rect width="720" height="420" fill="#fbfcfd"/><g font-family="Verdana, sans-serif" letter-spacing="0"><rect x="232" y="90" width="257" height="249" fill="#d8edf7" stroke="#273b45" stroke-width="2"/><rect x="235" y="119" width="251" height="24" fill="#d6dfe3" stroke="#273b45" stroke-width="2"/><line x1="362" y1="32" x2="362" y2="110" stroke="#b64f4f" stroke-width="4"/><polygon points="362,110 357.9223954694043,100.86911059687692 366.0776045305957,100.86911059687692" fill="#b64f4f" stroke="#b64f4f" stroke-width="2" stroke-linejoin="round"/><text x="390" y="62" font-size="22" fill="#273b45" text-anchor="start">Load</text><path d="M360 146 L345 164 L377 182 L345 200 L377 218 L345 236 L377 254 L360 280 V335" stroke="#2b7b61" stroke-width="5" fill="none" stroke-linejoin="round" stroke-linecap="round"/><path d="M489 190 H568 V270 H630" stroke="#287aab" stroke-width="5" fill="none" stroke-linejoin="round" stroke-linecap="round"/><line x1="572" y1="271" x2="643" y2="271" stroke="#287aab" stroke-width="3"/><polygon points="643,271 633.8691105968769,275.0776045305957 633.8691105968769,266.9223954694043" fill="#287aab" stroke="#287aab" stroke-width="2" stroke-linejoin="round"/><text x="530" y="307" font-size="20" fill="#287aab" text-anchor="start">Drainage</text><line x1="220" y1="345" x2="500" y2="345" stroke="#647780" stroke-width="2"/><line x1="220" y1="345" x2="210" y2="357" stroke="#b8c8ce" stroke-width="1.5"/><line x1="238" y1="345" x2="228" y2="357" stroke="#b8c8ce" stroke-width="1.5"/><line x1="256" y1="345" x2="246" y2="357" stroke="#b8c8ce" stroke-width="1.5"/><line x1="274" y1="345" x2="264" y2="357" stroke="#b8c8ce" stroke-width="1.5"/><line x1="292" y1="345" x2="282" y2="357" stroke="#b8c8ce" stroke-width="1.5"/><line x1="310" y1="345" x2="300" y2="357" stroke="#b8c8ce" stroke-width="1.5"/><line x1="328" y1="345" x2="318" y2="357" stroke="#b8c8ce" stroke-width="1.5"/><line x1="346" y1="345" x2="336" y2="357" stroke="#b8c8ce" stroke-width="1.5"/><line x1="364" y1="345" x2="354" y2="357" stroke="#b8c8ce" stroke-width="1.5"/><line x1="382" y1="345" x2="372" y2="357" stroke="#b8c8ce" stroke-width="1.5"/><line x1="400" y1="345" x2="390" y2="357" stroke="#b8c8ce" stroke-width="1.5"/><line x1="418" y1="345" x2="408" y2="357" stroke="#b8c8ce" stroke-width="1.5"/><line x1="436" y1="345" x2="426" y2="357" stroke="#b8c8ce" stroke-width="1.5"/><line x1="454" y1="345" x2="444" y2="357" stroke="#b8c8ce" stroke-width="1.5"/><line x1="472" y1="345" x2="462" y2="357" stroke="#b8c8ce" stroke-width="1.5"/><line x1="490" y1="345" x2="480" y2="357" stroke="#b8c8ce" stroke-width="1.5"/></g></svg>
