<svg xmlns="http://www.w3.org/2000/svg" viewBox="0 0 720 420" width="720" height="420" role="img" aria-labelledby="title desc"><title id="title">Masonry failure modes</title><desc id="desc">Sliding along joints, diagonal cracking and local crushing are distinct mechanisms, not one universal brick-strength limit.</desc><rect width="720" height="420" fill="#fbfcfd"/><g font-family="Verdana, sans-serif" letter-spacing="0"><rect x="55" y="116" width="56" height="40" fill="#f0e6d4" stroke="#b8c8ce" stroke-width="2"/><rect x="114" y="116" width="56" height="40" fill="#f0e6d4" stroke="#b8c8ce" stroke-width="2"/><rect x="173" y="116" width="56" height="40" fill="#f0e6d4" stroke="#b8c8ce" stroke-width="2"/><rect x="63" y="159" width="56" height="40" fill="#f0e6d4" stroke="#b8c8ce" stroke-width="2"/><rect x="122" y="159" width="56" height="40" fill="#f0e6d4" stroke="#b8c8ce" stroke-width="2"/><rect x="181" y="159" width="56" height="40" fill="#f0e6d4" stroke="#b8c8ce" stroke-width="2"/><rect x="55" y="202" width="56" height="40" fill="#f0e6d4" stroke="#b8c8ce" stroke-width="2"/><rect x="114" y="202" width="56" height="40" fill="#f0e6d4" stroke="#b8c8ce" stroke-width="2"/><rect x="173" y="202" width="56" height="40" fill="#f0e6d4" stroke="#b8c8ce" stroke-width="2"/><rect x="63" y="245" width="56" height="40" fill="#f0e6d4" stroke="#b8c8ce" stroke-width="2"/><rect x="122" y="245" width="56" height="40" fill="#f0e6d4" stroke="#b8c8ce" stroke-width="2"/><rect x="181" y="245" width="56" height="40" fill="#f0e6d4" stroke="#b8c8ce" stroke-width="2"/><line x1="55" y1="202" x2="245" y2="202" stroke="#b64f4f" stroke-width="5"/><text x="145" y="345" font-size="19" fill="#273b45" text-anchor="middle">Joint sliding</text><rect x="280" y="116" width="56" height="40" fill="#f0e6d4" stroke="#b8c8ce" stroke-width="2"/><rect x="339" y="116" width="56" height="40" fill="#f0e6d4" stroke="#b8c8ce" stroke-width="2"/><rect x="398" y="116" width="56" height="40" fill="#f0e6d4" stroke="#b8c8ce" stroke-width="2"/><rect x="288" y="159" width="56" height="40" fill="#f0e6d4" stroke="#b8c8ce" stroke-width="2"/><rect x="347" y="159" width="56" height="40" fill="#f0e6d4" stroke="#b8c8ce" stroke-width="2"/><rect x="406" y="159" width="56" height="40" fill="#f0e6d4" stroke="#b8c8ce" stroke-width="2"/><rect x="280" y="202" width="56" height="40" fill="#f0e6d4" stroke="#b8c8ce" stroke-width="2"/><rect x="339" y="202" width="56" height="40" fill="#f0e6d4" stroke="#b8c8ce" stroke-width="2"/><rect x="398" y="202" width="56" height="40" fill="#f0e6d4" stroke="#b8c8ce" stroke-width="2"/><rect x="288" y="245" width="56" height="40" fill="#f0e6d4" stroke="#b8c8ce" stroke-width="2"/><rect x="347" y="245" width="56" height="40" fill="#f0e6d4" stroke="#b8c8ce" stroke-width="2"/><rect x="406" y="245" width="56" height="40" fill="#f0e6d4" stroke="#b8c8ce" stroke-width="2"/><path d="M300 280 L320 250 L367 236 L386 188 L442 155" stroke="#b64f4f" stroke-width="5" fill="none" stroke-linejoin="round" stroke-linecap="round"/><text x="370" y="345" font-size="19" fill="#273b45" text-anchor="middle">Diagonal crack</text><rect x="505" y="116" width="56" height="40" fill="#f0e6d4" stroke="#b8c8ce" stroke-width="2"/><rect x="564" y="116" width="56" height="40" fill="#f0e6d4" stroke="#b8c8ce" stroke-width="2"/><rect x="623" y="116" width="56" height="40" fill="#f0e6d4" stroke="#b8c8ce" stroke-width="2"/><rect x="513" y="159" width="56" height="40" fill="#f0e6d4" stroke="#b8c8ce" stroke-width="2"/><rect x="572" y="159" width="56" height="40" fill="#f0e6d4" stroke="#b8c8ce" stroke-width="2"/><rect x="631" y="159" width="56" height="40" fill="#f0e6d4" stroke="#b8c8ce" stroke-width="2"/><rect x="505" y="202" width="56" height="40" fill="#f0e6d4" stroke="#b8c8ce" stroke-width="2"/><rect x="564" y="202" width="56" height="40" fill="#f0e6d4" stroke="#b8c8ce" stroke-width="2"/><rect x="623" y="202" width="56" height="40" fill="#f0e6d4" stroke="#b8c8ce" stroke-width="2"/><rect x="513" y="245" width="56" height="40" fill="#f0e6d4" stroke="#b8c8ce" stroke-width="2"/><rect x="572" y="245" width="56" height="40" fill="#f0e6d4" stroke="#b8c8ce" stroke-width="2"/><rect x="631" y="245" width="56" height="40" fill="#f0e6d4" stroke="#b8c8ce" stroke-width="2"/><line x1="555" y1="135" x2="550" y2="185" stroke="#b64f4f" stroke-width="3"/><line x1="576" y1="135" x2="576" y2="185" stroke="#b64f4f" stroke-width="3"/><line x1="597" y1="135" x2="602" y2="185" stroke="#b64f4f" stroke-width="3"/><line x1="618" y1="135" x2="628" y2="185" stroke="#b64f4f" stroke-width="3"/><text x="595" y="345" font-size="19" fill="#273b45" text-anchor="middle">Local crushing</text></g></svg>
