<svg xmlns="http://www.w3.org/2000/svg" viewBox="0 0 720 420" width="720" height="420" role="img" aria-labelledby="title desc"><title id="title">Direct-shear box</title><desc id="desc">Relative box movement imposes a shear plane while normal load is applied to the specimen.</desc><rect width="720" height="420" fill="#fbfcfd"/><g font-family="Verdana, sans-serif" letter-spacing="0"><rect x="230" y="135" width="275" height="70" fill="#f0e6d4" stroke="#273b45" stroke-width="2"/><rect x="205" y="210" width="275" height="85" fill="#f0e6d4" stroke="#273b45" stroke-width="2"/><line x1="205" y1="207" x2="530" y2="207" stroke="#b64f4f" stroke-width="2" stroke-dasharray="5 5"/><line x1="515" y1="163" x2="630" y2="163" stroke="#b64f4f" stroke-width="3"/><polygon points="630,163 620.8691105968769,167.0776045305957 620.8691105968769,158.9223954694043" fill="#b64f4f" stroke="#b64f4f" stroke-width="2" stroke-linejoin="round"/><line x1="130" y1="255" x2="199" y2="255" stroke="#2b7b61" stroke-width="3"/><polygon points="199,255 189.8691105968769,259.0776045305957 189.8691105968769,250.9223954694043" fill="#2b7b61" stroke="#2b7b61" stroke-width="2" stroke-linejoin="round"/><line x1="355" y1="48" x2="355" y2="127" stroke="#287aab" stroke-width="3"/><polygon points="355,127 350.9223954694043,117.86911059687692 359.0776045305957,117.86911059687692" fill="#287aab" stroke="#287aab" stroke-width="2" stroke-linejoin="round"/><text x="377" y="80" font-size="21" fill="#273b45" text-anchor="start">Normal load</text><line x1="190" y1="302" x2="510" y2="302" stroke="#647780" stroke-width="2"/><line x1="190" y1="302" x2="180" y2="314" stroke="#b8c8ce" stroke-width="1.5"/><line x1="208" y1="302" x2="198" y2="314" stroke="#b8c8ce" stroke-width="1.5"/><line x1="226" y1="302" x2="216" y2="314" stroke="#b8c8ce" stroke-width="1.5"/><line x1="244" y1="302" x2="234" y2="314" stroke="#b8c8ce" stroke-width="1.5"/><line x1="262" y1="302" x2="252" y2="314" stroke="#b8c8ce" stroke-width="1.5"/><line x1="280" y1="302" x2="270" y2="314" stroke="#b8c8ce" stroke-width="1.5"/><line x1="298" y1="302" x2="288" y2="314" stroke="#b8c8ce" stroke-width="1.5"/><line x1="316" y1="302" x2="306" y2="314" stroke="#b8c8ce" stroke-width="1.5"/><line x1="334" y1="302" x2="324" y2="314" stroke="#b8c8ce" stroke-width="1.5"/><line x1="352" y1="302" x2="342" y2="314" stroke="#b8c8ce" stroke-width="1.5"/><line x1="370" y1="302" x2="360" y2="314" stroke="#b8c8ce" stroke-width="1.5"/><line x1="388" y1="302" x2="378" y2="314" stroke="#b8c8ce" stroke-width="1.5"/><line x1="406" y1="302" x2="396" y2="314" stroke="#b8c8ce" stroke-width="1.5"/><line x1="424" y1="302" x2="414" y2="314" stroke="#b8c8ce" stroke-width="1.5"/><line x1="442" y1="302" x2="432" y2="314" stroke="#b8c8ce" stroke-width="1.5"/><line x1="460" y1="302" x2="450" y2="314" stroke="#b8c8ce" stroke-width="1.5"/><line x1="478" y1="302" x2="468" y2="314" stroke="#b8c8ce" stroke-width="1.5"/><line x1="496" y1="302" x2="486" y2="314" stroke="#b8c8ce" stroke-width="1.5"/><text x="430" y="348" font-size="21" fill="#b64f4f" text-anchor="middle">Imposed shear plane</text></g></svg>
