<svg xmlns="http://www.w3.org/2000/svg" viewBox="0 0 720 420" width="720" height="420" role="img" aria-labelledby="title desc"><title id="title">Single and double drainage</title><desc id="desc">The longest drainage path is the full layer thickness for one-way drainage and half for two-way drainage.</desc><rect width="720" height="420" fill="#fbfcfd"/><g font-family="Verdana, sans-serif" letter-spacing="0"><rect x="85" y="103" width="210" height="215" fill="#f0e6d4" stroke="#273b45" stroke-width="2"/><line x1="85" y1="100" x2="295" y2="100" stroke="#287aab" stroke-width="6"/><line x1="85" y1="320" x2="295" y2="320" stroke="#273b45" stroke-width="6"/><line x1="190" y1="280" x2="190" y2="124" stroke="#2b7b61" stroke-width="3"/><polygon points="190,124 194.0776045305957,133.1308894031231 185.9223954694043,133.1308894031231" fill="#2b7b61" stroke="#2b7b61" stroke-width="2" stroke-linejoin="round"/><text x="190" y="366" font-size="22" fill="#273b45" text-anchor="middle">Single drainage</text><line x1="317" y1="103" x2="317" y2="318" stroke="#647780" stroke-width="1.5"/><line x1="310" y1="103" x2="324" y2="103" stroke="#647780" stroke-width="1.5"/><line x1="310" y1="318" x2="324" y2="318" stroke="#647780" stroke-width="1.5"/><text x="342" y="216.5" font-size="19" fill="#647780" text-anchor="middle">H</text><rect x="415" y="103" width="210" height="215" fill="#f0e6d4" stroke="#273b45" stroke-width="2"/><line x1="415" y1="100" x2="625" y2="100" stroke="#287aab" stroke-width="6"/><line x1="415" y1="320" x2="625" y2="320" stroke="#287aab" stroke-width="6"/><line x1="520" y1="280" x2="520" y2="124" stroke="#2b7b61" stroke-width="3"/><polygon points="520,124 524.0776045305957,133.1308894031231 515.9223954694043,133.1308894031231" fill="#2b7b61" stroke="#2b7b61" stroke-width="2" stroke-linejoin="round"/><line x1="520" y1="225" x2="520" y2="303" stroke="#2b7b61" stroke-width="3"/><polygon points="520,303 515.9223954694043,293.8691105968769 524.0776045305957,293.8691105968769" fill="#2b7b61" stroke="#2b7b61" stroke-width="2" stroke-linejoin="round"/><text x="520" y="366" font-size="22" fill="#273b45" text-anchor="middle">Double drainage</text><line x1="647" y1="103" x2="647" y2="210" stroke="#647780" stroke-width="1.5"/><line x1="640" y1="103" x2="654" y2="103" stroke="#647780" stroke-width="1.5"/><line x1="640" y1="210" x2="654" y2="210" stroke="#647780" stroke-width="1.5"/><text x="672" y="162.5" font-size="19" fill="#647780" text-anchor="middle">H half</text></g></svg>
