<svg xmlns="http://www.w3.org/2000/svg" viewBox="0 0 720 420" width="720" height="420" role="img" aria-labelledby="title desc"><title id="title">Laminar and turbulent velocity profiles</title><desc id="desc">Laminar flow, with Re below about 2000, has a parabolic profile whose maximum is twice the mean velocity V; turbulent flow, above about 4000, has a much flatter profile whose maximum is only about 1.2 times the mean.</desc><rect width="720" height="420" fill="#fbfcfd"/><g font-family="'Times New Roman', Times, serif" letter-spacing="0"><text x="185" y="70" font-size="18" fill="#273b45" text-anchor="middle">Laminar, Re &lt; 2000</text><line x1="40" y1="110" x2="330" y2="110" stroke="#273b45" stroke-width="3"/><line x1="40" y1="290" x2="330" y2="290" stroke="#273b45" stroke-width="3"/><line x1="40" y1="98" x2="52" y2="110" stroke="#8a9aa3" stroke-width="1"/><line x1="52" y1="98" x2="64" y2="110" stroke="#8a9aa3" stroke-width="1"/><line x1="64" y1="98" x2="76" y2="110" stroke="#8a9aa3" stroke-width="1"/><line x1="76" y1="98" x2="88" y2="110" stroke="#8a9aa3" stroke-width="1"/><line x1="88" y1="98" x2="100" y2="110" stroke="#8a9aa3" stroke-width="1"/><line x1="100" y1="98" x2="112" y2="110" stroke="#8a9aa3" stroke-width="1"/><line x1="112" y1="98" x2="124" y2="110" stroke="#8a9aa3" stroke-width="1"/><line x1="124" y1="98" x2="136" y2="110" stroke="#8a9aa3" stroke-width="1"/><line x1="136" y1="98" x2="148" y2="110" stroke="#8a9aa3" stroke-width="1"/><line x1="148" y1="98" x2="160" y2="110" stroke="#8a9aa3" stroke-width="1"/><line x1="160" y1="98" x2="172" y2="110" stroke="#8a9aa3" stroke-width="1"/><line x1="172" y1="98" x2="184" y2="110" stroke="#8a9aa3" stroke-width="1"/><line x1="184" y1="98" x2="196" y2="110" stroke="#8a9aa3" stroke-width="1"/><line x1="196" y1="98" x2="208" y2="110" stroke="#8a9aa3" stroke-width="1"/><line x1="208" y1="98" x2="220" y2="110" stroke="#8a9aa3" stroke-width="1"/><line x1="220" y1="98" x2="232" y2="110" stroke="#8a9aa3" stroke-width="1"/><line x1="232" y1="98" x2="244" y2="110" stroke="#8a9aa3" stroke-width="1"/><line x1="244" y1="98" x2="256" y2="110" stroke="#8a9aa3" stroke-width="1"/><line x1="256" y1="98" x2="268" y2="110" stroke="#8a9aa3" stroke-width="1"/><line x1="268" y1="98" x2="280" y2="110" stroke="#8a9aa3" stroke-width="1"/><line x1="280" y1="98" x2="292" y2="110" stroke="#8a9aa3" stroke-width="1"/><line x1="292" y1="98" x2="304" y2="110" stroke="#8a9aa3" stroke-width="1"/><line x1="304" y1="98" x2="316" y2="110" stroke="#8a9aa3" stroke-width="1"/><line x1="316" y1="98" x2="328" y2="110" stroke="#8a9aa3" stroke-width="1"/><line x1="328" y1="98" x2="330" y2="100" stroke="#8a9aa3" stroke-width="1"/><line x1="40" y1="290" x2="52" y2="302" stroke="#8a9aa3" stroke-width="1"/><line x1="52" y1="290" x2="64" y2="302" stroke="#8a9aa3" stroke-width="1"/><line x1="64" y1="290" x2="76" y2="302" stroke="#8a9aa3" stroke-width="1"/><line x1="76" y1="290" x2="88" y2="302" stroke="#8a9aa3" stroke-width="1"/><line x1="88" y1="290" x2="100" y2="302" stroke="#8a9aa3" stroke-width="1"/><line x1="100" y1="290" x2="112" y2="302" stroke="#8a9aa3" stroke-width="1"/><line x1="112" y1="290" x2="124" y2="302" stroke="#8a9aa3" stroke-width="1"/><line x1="124" y1="290" x2="136" y2="302" stroke="#8a9aa3" stroke-width="1"/><line x1="136" y1="290" x2="148" y2="302" stroke="#8a9aa3" stroke-width="1"/><line x1="148" y1="290" x2="160" y2="302" stroke="#8a9aa3" stroke-width="1"/><line x1="160" y1="290" x2="172" y2="302" stroke="#8a9aa3" stroke-width="1"/><line x1="172" y1="290" x2="184" y2="302" stroke="#8a9aa3" stroke-width="1"/><line x1="184" y1="290" x2="196" y2="302" stroke="#8a9aa3" stroke-width="1"/><line x1="196" y1="290" x2="208" y2="302" stroke="#8a9aa3" stroke-width="1"/><line x1="208" y1="290" x2="220" y2="302" stroke="#8a9aa3" stroke-width="1"/><line x1="220" y1="290" x2="232" y2="302" stroke="#8a9aa3" stroke-width="1"/><line x1="232" y1="290" x2="244" y2="302" stroke="#8a9aa3" stroke-width="1"/><line x1="244" y1="290" x2="256" y2="302" stroke="#8a9aa3" stroke-width="1"/><line x1="256" y1="290" x2="268" y2="302" stroke="#8a9aa3" stroke-width="1"/><line x1="268" y1="290" x2="280" y2="302" stroke="#8a9aa3" stroke-width="1"/><line x1="280" y1="290" x2="292" y2="302" stroke="#8a9aa3" stroke-width="1"/><line x1="292" y1="290" x2="304" y2="302" stroke="#8a9aa3" stroke-width="1"/><line x1="304" y1="290" x2="316" y2="302" stroke="#8a9aa3" stroke-width="1"/><line x1="316" y1="290" x2="328" y2="302" stroke="#8a9aa3" stroke-width="1"/><line x1="328" y1="290" x2="330" y2="292" stroke="#8a9aa3" stroke-width="1"/><line x1="80" y1="110" x2="80" y2="290" stroke="#647780" stroke-width="1.5"/><path d="M80 110 L91.8 113 L103.2 116 L114.2 119 L124.8 122 L135 125 L144.8 128 L154.2 131 L163.2 134 L171.8 137 L180 140 L187.8 143 L195.2 146 L202.2 149 L208.8 152 L215 155 L220.8 158 L226.2 161 L231.2 164 L235.8 167 L240 170 L243.8 173 L247.2 176 L250.2 179 L252.8 182 L255 185 L256.8 188 L258.2 191 L259.2 194 L259.8 197 L260 200 L259.8 203 L259.2 206 L258.2 209 L256.8 212 L255 215 L252.8 218 L250.2 221 L247.2 224 L243.8 227 L240 230 L235.8 233 L231.2 236 L226.2 239 L220.8 242 L215 245 L208.8 248 L202.2 251 L195.2 254 L187.8 257 L180 260 L171.8 263 L163.2 266 L154.2 269 L144.8 272 L135 275 L124.8 278 L114.2 281 L103.2 284 L91.8 287 L80 290" stroke="#287aab" stroke-width="3" fill="none" stroke-linejoin="round" stroke-linecap="round"/><line x1="80" y1="128" x2="138.4" y2="128" stroke="#287aab" stroke-width="1.6"/><polygon points="144.8,128 136.8,131.5 136.8,124.5" fill="#287aab" stroke="#287aab" stroke-width="1.5" stroke-linejoin="round"/><line x1="80" y1="155" x2="208.6" y2="155" stroke="#287aab" stroke-width="1.6"/><polygon points="215,155 207,158.5 207,151.5" fill="#287aab" stroke="#287aab" stroke-width="1.5" stroke-linejoin="round"/><line x1="80" y1="182" x2="246.4" y2="182" stroke="#287aab" stroke-width="1.6"/><polygon points="252.8,182 244.8,185.5 244.8,178.5" fill="#287aab" stroke="#287aab" stroke-width="1.5" stroke-linejoin="round"/><line x1="80" y1="218" x2="246.4" y2="218" stroke="#287aab" stroke-width="1.6"/><polygon points="252.8,218 244.8,221.5 244.8,214.5" fill="#287aab" stroke="#287aab" stroke-width="1.5" stroke-linejoin="round"/><line x1="80" y1="245" x2="208.6" y2="245" stroke="#287aab" stroke-width="1.6"/><polygon points="215,245 207,248.5 207,241.5" fill="#287aab" stroke="#287aab" stroke-width="1.5" stroke-linejoin="round"/><line x1="80" y1="272" x2="138.4" y2="272" stroke="#287aab" stroke-width="1.6"/><polygon points="144.8,272 136.8,275.5 136.8,268.5" fill="#287aab" stroke="#287aab" stroke-width="1.5" stroke-linejoin="round"/><line x1="170" y1="116" x2="170" y2="284" stroke="#b64f4f" stroke-width="1.5" stroke-dasharray="6 5"/><text x="170" y="322" font-size="16" fill="#b64f4f" text-anchor="middle">V</text><text x="185" y="352" font-size="17" fill="#273b45" text-anchor="middle">umax = 2V</text><text x="535" y="70" font-size="18" fill="#273b45" text-anchor="middle">Turbulent, Re &gt; 4000</text><line x1="390" y1="110" x2="680" y2="110" stroke="#273b45" stroke-width="3"/><line x1="390" y1="290" x2="680" y2="290" stroke="#273b45" stroke-width="3"/><line x1="390" y1="98" x2="402" y2="110" stroke="#8a9aa3" stroke-width="1"/><line x1="402" y1="98" x2="414" y2="110" stroke="#8a9aa3" stroke-width="1"/><line x1="414" y1="98" x2="426" y2="110" stroke="#8a9aa3" stroke-width="1"/><line x1="426" y1="98" x2="438" y2="110" stroke="#8a9aa3" stroke-width="1"/><line x1="438" y1="98" x2="450" y2="110" stroke="#8a9aa3" stroke-width="1"/><line x1="450" y1="98" x2="462" y2="110" stroke="#8a9aa3" stroke-width="1"/><line x1="462" y1="98" x2="474" y2="110" stroke="#8a9aa3" stroke-width="1"/><line x1="474" y1="98" x2="486" y2="110" stroke="#8a9aa3" stroke-width="1"/><line x1="486" y1="98" x2="498" y2="110" stroke="#8a9aa3" stroke-width="1"/><line x1="498" y1="98" x2="510" y2="110" stroke="#8a9aa3" stroke-width="1"/><line x1="510" y1="98" x2="522" y2="110" stroke="#8a9aa3" stroke-width="1"/><line x1="522" y1="98" x2="534" y2="110" stroke="#8a9aa3" stroke-width="1"/><line x1="534" y1="98" x2="546" y2="110" stroke="#8a9aa3" stroke-width="1"/><line x1="546" y1="98" x2="558" y2="110" stroke="#8a9aa3" stroke-width="1"/><line x1="558" y1="98" x2="570" y2="110" stroke="#8a9aa3" stroke-width="1"/><line x1="570" y1="98" x2="582" y2="110" stroke="#8a9aa3" stroke-width="1"/><line x1="582" y1="98" x2="594" y2="110" stroke="#8a9aa3" stroke-width="1"/><line x1="594" y1="98" x2="606" y2="110" stroke="#8a9aa3" stroke-width="1"/><line x1="606" y1="98" x2="618" y2="110" stroke="#8a9aa3" stroke-width="1"/><line x1="618" y1="98" x2="630" y2="110" stroke="#8a9aa3" stroke-width="1"/><line x1="630" y1="98" x2="642" y2="110" stroke="#8a9aa3" stroke-width="1"/><line x1="642" y1="98" x2="654" y2="110" stroke="#8a9aa3" stroke-width="1"/><line x1="654" y1="98" x2="666" y2="110" stroke="#8a9aa3" stroke-width="1"/><line x1="666" y1="98" x2="678" y2="110" stroke="#8a9aa3" stroke-width="1"/><line x1="678" y1="98" x2="680" y2="100" stroke="#8a9aa3" stroke-width="1"/><line x1="390" y1="290" x2="402" y2="302" stroke="#8a9aa3" stroke-width="1"/><line x1="402" y1="290" x2="414" y2="302" stroke="#8a9aa3" stroke-width="1"/><line x1="414" y1="290" x2="426" y2="302" stroke="#8a9aa3" stroke-width="1"/><line x1="426" y1="290" x2="438" y2="302" stroke="#8a9aa3" stroke-width="1"/><line x1="438" y1="290" x2="450" y2="302" stroke="#8a9aa3" stroke-width="1"/><line x1="450" y1="290" x2="462" y2="302" stroke="#8a9aa3" stroke-width="1"/><line x1="462" y1="290" x2="474" y2="302" stroke="#8a9aa3" stroke-width="1"/><line x1="474" y1="290" x2="486" y2="302" stroke="#8a9aa3" stroke-width="1"/><line x1="486" y1="290" x2="498" y2="302" stroke="#8a9aa3" stroke-width="1"/><line x1="498" y1="290" x2="510" y2="302" stroke="#8a9aa3" stroke-width="1"/><line x1="510" y1="290" x2="522" y2="302" stroke="#8a9aa3" stroke-width="1"/><line x1="522" y1="290" x2="534" y2="302" stroke="#8a9aa3" stroke-width="1"/><line x1="534" y1="290" x2="546" y2="302" stroke="#8a9aa3" stroke-width="1"/><line x1="546" y1="290" x2="558" y2="302" stroke="#8a9aa3" stroke-width="1"/><line x1="558" y1="290" x2="570" y2="302" stroke="#8a9aa3" stroke-width="1"/><line x1="570" y1="290" x2="582" y2="302" stroke="#8a9aa3" stroke-width="1"/><line x1="582" y1="290" x2="594" y2="302" stroke="#8a9aa3" stroke-width="1"/><line x1="594" y1="290" x2="606" y2="302" stroke="#8a9aa3" stroke-width="1"/><line x1="606" y1="290" x2="618" y2="302" stroke="#8a9aa3" stroke-width="1"/><line x1="618" y1="290" x2="630" y2="302" stroke="#8a9aa3" stroke-width="1"/><line x1="630" y1="290" x2="642" y2="302" stroke="#8a9aa3" stroke-width="1"/><line x1="642" y1="290" x2="654" y2="302" stroke="#8a9aa3" stroke-width="1"/><line x1="654" y1="290" x2="666" y2="302" stroke="#8a9aa3" stroke-width="1"/><line x1="666" y1="290" x2="678" y2="302" stroke="#8a9aa3" stroke-width="1"/><line x1="678" y1="290" x2="680" y2="292" stroke="#8a9aa3" stroke-width="1"/><line x1="430" y1="110" x2="430" y2="290" stroke="#647780" stroke-width="1.5"/><path d="M430 110 L497.54 113 L504.57 116 L509.02 119 L512.34 122 L515 125 L517.25 128 L519.19 131 L520.91 134 L522.45 137 L523.85 140 L525.14 143 L526.33 146 L527.44 149 L528.47 152 L529.45 155 L530.37 158 L531.24 161 L532.07 164 L532.86 167 L533.62 170 L534.35 173 L535.04 176 L535.71 179 L536.36 182 L536.98 185 L537.58 188 L538.16 191 L538.72 194 L539.27 197 L539.8 200 L539.27 203 L538.72 206 L538.16 209 L537.58 212 L536.98 215 L536.36 218 L535.71 221 L535.04 224 L534.35 227 L533.62 230 L532.86 233 L532.07 236 L531.24 239 L530.37 242 L529.45 245 L528.47 248 L527.44 251 L526.33 254 L525.14 257 L523.85 260 L522.45 263 L520.91 266 L519.19 269 L517.25 272 L515 275 L512.34 278 L509.02 281 L504.57 284 L497.54 287 L430 290" stroke="#287aab" stroke-width="3" fill="none" stroke-linejoin="round" stroke-linecap="round"/><line x1="430" y1="128" x2="510.85" y2="128" stroke="#287aab" stroke-width="1.6"/><polygon points="517.25,128 509.25,131.5 509.25,124.5" fill="#287aab" stroke="#287aab" stroke-width="1.5" stroke-linejoin="round"/><line x1="430" y1="155" x2="523.05" y2="155" stroke="#287aab" stroke-width="1.6"/><polygon points="529.45,155 521.45,158.5 521.45,151.5" fill="#287aab" stroke="#287aab" stroke-width="1.5" stroke-linejoin="round"/><line x1="430" y1="182" x2="529.96" y2="182" stroke="#287aab" stroke-width="1.6"/><polygon points="536.36,182 528.36,185.5 528.36,178.5" fill="#287aab" stroke="#287aab" stroke-width="1.5" stroke-linejoin="round"/><line x1="430" y1="218" x2="529.96" y2="218" stroke="#287aab" stroke-width="1.6"/><polygon points="536.36,218 528.36,221.5 528.36,214.5" fill="#287aab" stroke="#287aab" stroke-width="1.5" stroke-linejoin="round"/><line x1="430" y1="245" x2="523.05" y2="245" stroke="#287aab" stroke-width="1.6"/><polygon points="529.45,245 521.45,248.5 521.45,241.5" fill="#287aab" stroke="#287aab" stroke-width="1.5" stroke-linejoin="round"/><line x1="430" y1="272" x2="510.85" y2="272" stroke="#287aab" stroke-width="1.6"/><polygon points="517.25,272 509.25,275.5 509.25,268.5" fill="#287aab" stroke="#287aab" stroke-width="1.5" stroke-linejoin="round"/><line x1="520" y1="116" x2="520" y2="284" stroke="#b64f4f" stroke-width="1.5" stroke-dasharray="6 5"/><text x="520" y="322" font-size="16" fill="#b64f4f" text-anchor="middle">V</text><text x="535" y="352" font-size="17" fill="#273b45" text-anchor="middle">umax ≈ 1.2V</text><text x="360" y="398" font-size="16" fill="#273b45" text-anchor="middle">Between Re of about 2000 and 4000 the flow is transitional</text></g></svg>