<svg xmlns="http://www.w3.org/2000/svg" viewBox="0 0 720 420" width="720" height="420" role="img" aria-labelledby="title desc"><title id="title">Fixed-end moments for a uniform load and an off-centre point load</title><desc id="desc">Fixed ends hold the beam level, so hogging moments appear at the supports. A uniform load gives wL squared/12 at each end and wL squared/24 at mid-span. A point load W at a from A and b from B gives Wab squared/L squared at A and W a squared b/L squared at B, larger at the nearer end.</desc><rect width="720" height="420" fill="#fbfcfd"/><g font-family="'Times New Roman', Times, serif" letter-spacing="0"><line x1="70" y1="130" x2="320" y2="130" stroke="#273b45" stroke-width="7"/><line x1="70" y1="96" x2="70" y2="164" stroke="#273b45" stroke-width="3"/><line x1="70" y1="100" x2="59" y2="110" stroke="#647780" stroke-width="1.4"/><line x1="70" y1="112" x2="59" y2="122" stroke="#647780" stroke-width="1.4"/><line x1="70" y1="124" x2="59" y2="134" stroke="#647780" stroke-width="1.4"/><line x1="70" y1="136" x2="59" y2="146" stroke="#647780" stroke-width="1.4"/><line x1="70" y1="148" x2="59" y2="158" stroke="#647780" stroke-width="1.4"/><line x1="70" y1="160" x2="59" y2="170" stroke="#647780" stroke-width="1.4"/><line x1="320" y1="96" x2="320" y2="164" stroke="#273b45" stroke-width="3"/><line x1="320" y1="100" x2="331" y2="110" stroke="#647780" stroke-width="1.4"/><line x1="320" y1="112" x2="331" y2="122" stroke="#647780" stroke-width="1.4"/><line x1="320" y1="124" x2="331" y2="134" stroke="#647780" stroke-width="1.4"/><line x1="320" y1="136" x2="331" y2="146" stroke="#647780" stroke-width="1.4"/><line x1="320" y1="148" x2="331" y2="158" stroke="#647780" stroke-width="1.4"/><line x1="320" y1="160" x2="331" y2="170" stroke="#647780" stroke-width="1.4"/><line x1="70" y1="96" x2="320" y2="96" stroke="#b64f4f" stroke-width="2"/><line x1="70" y1="96" x2="70" y2="117.8" stroke="#b64f4f" stroke-width="2"/><polygon points="70,125 66,116 74,116" fill="#b64f4f" stroke="#b64f4f" stroke-width="1.5" stroke-linejoin="round"/><line x1="105.71" y1="96" x2="105.71" y2="117.8" stroke="#b64f4f" stroke-width="2"/><polygon points="105.71,125 101.71,116 109.71,116" fill="#b64f4f" stroke="#b64f4f" stroke-width="1.5" stroke-linejoin="round"/><line x1="141.43" y1="96" x2="141.43" y2="117.8" stroke="#b64f4f" stroke-width="2"/><polygon points="141.43,125 137.43,116 145.43,116" fill="#b64f4f" stroke="#b64f4f" stroke-width="1.5" stroke-linejoin="round"/><line x1="177.14" y1="96" x2="177.14" y2="117.8" stroke="#b64f4f" stroke-width="2"/><polygon points="177.14,125 173.14,116 181.14,116" fill="#b64f4f" stroke="#b64f4f" stroke-width="1.5" stroke-linejoin="round"/><line x1="212.86" y1="96" x2="212.86" y2="117.8" stroke="#b64f4f" stroke-width="2"/><polygon points="212.86,125 208.86,116 216.86,116" fill="#b64f4f" stroke="#b64f4f" stroke-width="1.5" stroke-linejoin="round"/><line x1="248.57" y1="96" x2="248.57" y2="117.8" stroke="#b64f4f" stroke-width="2"/><polygon points="248.57,125 244.57,116 252.57,116" fill="#b64f4f" stroke="#b64f4f" stroke-width="1.5" stroke-linejoin="round"/><line x1="284.29" y1="96" x2="284.29" y2="117.8" stroke="#b64f4f" stroke-width="2"/><polygon points="284.29,125 280.29,116 288.29,116" fill="#b64f4f" stroke="#b64f4f" stroke-width="1.5" stroke-linejoin="round"/><line x1="320" y1="96" x2="320" y2="117.8" stroke="#b64f4f" stroke-width="2"/><polygon points="320,125 316,116 324,116" fill="#b64f4f" stroke="#b64f4f" stroke-width="1.5" stroke-linejoin="round"/><text x="195" y="87" font-size="16" fill="#b64f4f" text-anchor="middle"><tspan>w</tspan></text><polygon points="70,260 70,318 71.04,316.56 72.08,315.12 73.13,313.7 74.17,312.3 75.21,310.9 76.25,309.52 77.29,308.15 78.33,306.79 79.38,305.44 80.42,304.1 81.46,302.78 82.5,301.47 83.54,300.17 84.58,298.88 85.63,297.61 86.67,296.35 87.71,295.1 88.75,293.86 89.79,292.63 90.83,291.42 91.88,290.21 92.92,289.02 93.96,287.85 95,286.68 96.04,285.53 97.08,284.38 98.13,283.25 99.17,282.14 100.21,281.03 101.25,279.94 102.29,278.86 103.33,277.79 104.38,276.73 105.42,275.68 106.46,274.65 107.5,273.63 108.54,272.62 109.58,271.62 110.63,270.64 111.67,269.67 112.71,268.71 113.75,267.76 114.79,266.82 115.83,265.9 116.88,264.98 117.92,264.08 118.96,263.2 120,262.32 121.04,261.46 122.08,260.6 123.13,259.76 124.17,258.94 125.21,258.12 126.25,257.32 127.29,256.53 128.33,255.75 129.38,254.98 130.42,254.22 131.46,253.48 132.5,252.75 133.54,252.03 134.58,251.32 135.63,250.63 136.67,249.95 137.71,249.28 138.75,248.62 139.79,247.97 140.83,247.34 141.88,246.71 142.92,246.1 143.96,245.51 145,244.92 146.04,244.35 147.08,243.78 148.13,243.23 149.17,242.7 150.21,242.17 151.25,241.66 152.29,241.16 153.33,240.67 154.38,240.19 155.42,239.72 156.46,239.27 157.5,238.83 158.54,238.4 159.58,237.98 160.63,237.58 161.67,237.19 162.71,236.81 163.75,236.44 164.79,236.08 165.83,235.74 166.88,235.4 167.92,235.08 168.96,234.78 170,234.48 171.04,234.2 172.08,233.92 173.13,233.66 174.17,233.42 175.21,233.18 176.25,232.96 177.29,232.75 178.33,232.55 179.38,232.36 180.42,232.18 181.46,232.02 182.5,231.87 183.54,231.73 184.58,231.6 185.63,231.49 186.67,231.39 187.71,231.3 188.75,231.22 189.79,231.15 190.83,231.1 191.88,231.05 192.92,231.02 193.96,231.01 195,231 196.04,231.01 197.08,231.02 198.13,231.05 199.17,231.1 200.21,231.15 201.25,231.22 202.29,231.3 203.33,231.39 204.38,231.49 205.42,231.6 206.46,231.73 207.5,231.87 208.54,232.02 209.58,232.18 210.63,232.36 211.67,232.55 212.71,232.75 213.75,232.96 214.79,233.18 215.83,233.42 216.88,233.66 217.92,233.92 218.96,234.2 220,234.48 221.04,234.78 222.08,235.08 223.13,235.4 224.17,235.74 225.21,236.08 226.25,236.44 227.29,236.81 228.33,237.19 229.38,237.58 230.42,237.98 231.46,238.4 232.5,238.83 233.54,239.27 234.58,239.72 235.63,240.19 236.67,240.67 237.71,241.16 238.75,241.66 239.79,242.17 240.83,242.7 241.88,243.23 242.92,243.78 243.96,244.35 245,244.92 246.04,245.51 247.08,246.1 248.13,246.71 249.17,247.34 250.21,247.97 251.25,248.62 252.29,249.28 253.33,249.95 254.38,250.63 255.42,251.32 256.46,252.03 257.5,252.75 258.54,253.48 259.58,254.22 260.63,254.98 261.67,255.75 262.71,256.53 263.75,257.32 264.79,258.12 265.83,258.94 266.88,259.76 267.92,260.6 268.96,261.46 270,262.32 271.04,263.2 272.08,264.08 273.13,264.98 274.17,265.9 275.21,266.82 276.25,267.76 277.29,268.71 278.33,269.67 279.38,270.64 280.42,271.62 281.46,272.62 282.5,273.63 283.54,274.65 284.58,275.68 285.63,276.73 286.67,277.79 287.71,278.86 288.75,279.94 289.79,281.03 290.83,282.14 291.88,283.25 292.92,284.38 293.96,285.53 295,286.68 296.04,287.85 297.08,289.02 298.13,290.21 299.17,291.42 300.21,292.63 301.25,293.86 302.29,295.1 303.33,296.35 304.38,297.61 305.42,298.88 306.46,300.17 307.5,301.47 308.54,302.78 309.58,304.1 310.63,305.44 311.67,306.79 312.71,308.15 313.75,309.52 314.79,310.9 315.83,312.3 316.88,313.7 317.92,315.12 318.96,316.56 320,318 320,260" fill="#f2dfdf" stroke="none" stroke-width="2" stroke-linejoin="round"/><path d="M70 318 L71.04 316.56 L72.08 315.12 L73.13 313.7 L74.17 312.3 L75.21 310.9 L76.25 309.52 L77.29 308.15 L78.33 306.79 L79.38 305.44 L80.42 304.1 L81.46 302.78 L82.5 301.47 L83.54 300.17 L84.58 298.88 L85.63 297.61 L86.67 296.35 L87.71 295.1 L88.75 293.86 L89.79 292.63 L90.83 291.42 L91.88 290.21 L92.92 289.02 L93.96 287.85 L95 286.68 L96.04 285.53 L97.08 284.38 L98.13 283.25 L99.17 282.14 L100.21 281.03 L101.25 279.94 L102.29 278.86 L103.33 277.79 L104.38 276.73 L105.42 275.68 L106.46 274.65 L107.5 273.63 L108.54 272.62 L109.58 271.62 L110.63 270.64 L111.67 269.67 L112.71 268.71 L113.75 267.76 L114.79 266.82 L115.83 265.9 L116.88 264.98 L117.92 264.08 L118.96 263.2 L120 262.32 L121.04 261.46 L122.08 260.6 L123.13 259.76 L124.17 258.94 L125.21 258.12 L126.25 257.32 L127.29 256.53 L128.33 255.75 L129.38 254.98 L130.42 254.22 L131.46 253.48 L132.5 252.75 L133.54 252.03 L134.58 251.32 L135.63 250.63 L136.67 249.95 L137.71 249.28 L138.75 248.62 L139.79 247.97 L140.83 247.34 L141.88 246.71 L142.92 246.1 L143.96 245.51 L145 244.92 L146.04 244.35 L147.08 243.78 L148.13 243.23 L149.17 242.7 L150.21 242.17 L151.25 241.66 L152.29 241.16 L153.33 240.67 L154.38 240.19 L155.42 239.72 L156.46 239.27 L157.5 238.83 L158.54 238.4 L159.58 237.98 L160.63 237.58 L161.67 237.19 L162.71 236.81 L163.75 236.44 L164.79 236.08 L165.83 235.74 L166.88 235.4 L167.92 235.08 L168.96 234.78 L170 234.48 L171.04 234.2 L172.08 233.92 L173.13 233.66 L174.17 233.42 L175.21 233.18 L176.25 232.96 L177.29 232.75 L178.33 232.55 L179.38 232.36 L180.42 232.18 L181.46 232.02 L182.5 231.87 L183.54 231.73 L184.58 231.6 L185.63 231.49 L186.67 231.39 L187.71 231.3 L188.75 231.22 L189.79 231.15 L190.83 231.1 L191.88 231.05 L192.92 231.02 L193.96 231.01 L195 231 L196.04 231.01 L197.08 231.02 L198.13 231.05 L199.17 231.1 L200.21 231.15 L201.25 231.22 L202.29 231.3 L203.33 231.39 L204.38 231.49 L205.42 231.6 L206.46 231.73 L207.5 231.87 L208.54 232.02 L209.58 232.18 L210.63 232.36 L211.67 232.55 L212.71 232.75 L213.75 232.96 L214.79 233.18 L215.83 233.42 L216.88 233.66 L217.92 233.92 L218.96 234.2 L220 234.48 L221.04 234.78 L222.08 235.08 L223.13 235.4 L224.17 235.74 L225.21 236.08 L226.25 236.44 L227.29 236.81 L228.33 237.19 L229.38 237.58 L230.42 237.98 L231.46 238.4 L232.5 238.83 L233.54 239.27 L234.58 239.72 L235.63 240.19 L236.67 240.67 L237.71 241.16 L238.75 241.66 L239.79 242.17 L240.83 242.7 L241.88 243.23 L242.92 243.78 L243.96 244.35 L245 244.92 L246.04 245.51 L247.08 246.1 L248.13 246.71 L249.17 247.34 L250.21 247.97 L251.25 248.62 L252.29 249.28 L253.33 249.95 L254.38 250.63 L255.42 251.32 L256.46 252.03 L257.5 252.75 L258.54 253.48 L259.58 254.22 L260.63 254.98 L261.67 255.75 L262.71 256.53 L263.75 257.32 L264.79 258.12 L265.83 258.94 L266.88 259.76 L267.92 260.6 L268.96 261.46 L270 262.32 L271.04 263.2 L272.08 264.08 L273.13 264.98 L274.17 265.9 L275.21 266.82 L276.25 267.76 L277.29 268.71 L278.33 269.67 L279.38 270.64 L280.42 271.62 L281.46 272.62 L282.5 273.63 L283.54 274.65 L284.58 275.68 L285.63 276.73 L286.67 277.79 L287.71 278.86 L288.75 279.94 L289.79 281.03 L290.83 282.14 L291.88 283.25 L292.92 284.38 L293.96 285.53 L295 286.68 L296.04 287.85 L297.08 289.02 L298.13 290.21 L299.17 291.42 L300.21 292.63 L301.25 293.86 L302.29 295.1 L303.33 296.35 L304.38 297.61 L305.42 298.88 L306.46 300.17 L307.5 301.47 L308.54 302.78 L309.58 304.1 L310.63 305.44 L311.67 306.79 L312.71 308.15 L313.75 309.52 L314.79 310.9 L315.83 312.3 L316.88 313.7 L317.92 315.12 L318.96 316.56 L320 318" stroke="#b64f4f" stroke-width="2.5" fill="none" stroke-linejoin="round" stroke-linecap="round"/><line x1="70" y1="260" x2="320" y2="260" stroke="#273b45" stroke-width="1.5"/><text x="74" y="338" font-size="16" fill="#b64f4f" text-anchor="start"><tspan>−wL²/12</tspan></text><text x="195" y="222" font-size="16" fill="#b64f4f" text-anchor="middle"><tspan>+wL²/24</tspan></text><text x="316" y="338" font-size="16" fill="#b64f4f" text-anchor="end"><tspan>−wL²/12</tspan></text><text x="195" y="380" font-size="15" fill="#647780" text-anchor="middle">uniform load</text><line x1="400" y1="130" x2="650" y2="130" stroke="#273b45" stroke-width="7"/><line x1="400" y1="96" x2="400" y2="164" stroke="#273b45" stroke-width="3"/><line x1="400" y1="100" x2="389" y2="110" stroke="#647780" stroke-width="1.4"/><line x1="400" y1="112" x2="389" y2="122" stroke="#647780" stroke-width="1.4"/><line x1="400" y1="124" x2="389" y2="134" stroke="#647780" stroke-width="1.4"/><line x1="400" y1="136" x2="389" y2="146" stroke="#647780" stroke-width="1.4"/><line x1="400" y1="148" x2="389" y2="158" stroke="#647780" stroke-width="1.4"/><line x1="400" y1="160" x2="389" y2="170" stroke="#647780" stroke-width="1.4"/><line x1="650" y1="96" x2="650" y2="164" stroke="#273b45" stroke-width="3"/><line x1="650" y1="100" x2="661" y2="110" stroke="#647780" stroke-width="1.4"/><line x1="650" y1="112" x2="661" y2="122" stroke="#647780" stroke-width="1.4"/><line x1="650" y1="124" x2="661" y2="134" stroke="#647780" stroke-width="1.4"/><line x1="650" y1="136" x2="661" y2="146" stroke="#647780" stroke-width="1.4"/><line x1="650" y1="148" x2="661" y2="158" stroke="#647780" stroke-width="1.4"/><line x1="650" y1="160" x2="661" y2="170" stroke="#647780" stroke-width="1.4"/><line x1="487.5" y1="78" x2="487.5" y2="117.2" stroke="#b64f4f" stroke-width="3.5"/><polygon points="487.5,126 483,115 492,115" fill="#b64f4f" stroke="#b64f4f" stroke-width="1.5" stroke-linejoin="round"/><text x="487.5" y="69" font-size="16" fill="#b64f4f" text-anchor="middle"><tspan>W</tspan></text><line x1="400" y1="186" x2="487.5" y2="186" stroke="#647780" stroke-width="1.5"/><line x1="400" y1="179" x2="400" y2="193" stroke="#647780" stroke-width="1.5"/><line x1="487.5" y1="179" x2="487.5" y2="193" stroke="#647780" stroke-width="1.5"/><text x="443.75" y="212" font-size="15" fill="#647780" text-anchor="middle">a</text><line x1="487.5" y1="186" x2="650" y2="186" stroke="#647780" stroke-width="1.5"/><line x1="487.5" y1="179" x2="487.5" y2="193" stroke="#647780" stroke-width="1.5"/><line x1="650" y1="179" x2="650" y2="193" stroke="#647780" stroke-width="1.5"/><text x="568.75" y="212" font-size="15" fill="#647780" text-anchor="middle">b</text><polygon points="400,280 400,338 401.04,336.83 402.08,335.65 403.13,334.48 404.17,333.3 405.21,332.13 406.25,330.96 407.29,329.78 408.33,328.61 409.38,327.44 410.42,326.26 411.46,325.09 412.5,323.91 413.54,322.74 414.58,321.57 415.63,320.39 416.67,319.22 417.71,318.05 418.75,316.87 419.79,315.7 420.83,314.52 421.88,313.35 422.92,312.18 423.96,311 425,309.83 426.04,308.65 427.08,307.48 428.13,306.31 429.17,305.13 430.21,303.96 431.25,302.79 432.29,301.61 433.33,300.44 434.38,299.26 435.42,298.09 436.46,296.92 437.5,295.74 438.54,294.57 439.58,293.4 440.63,292.22 441.67,291.05 442.71,289.87 443.75,288.7 444.79,287.53 445.83,286.35 446.88,285.18 447.92,284 448.96,282.83 450,281.66 451.04,280.48 452.08,279.31 453.13,278.14 454.17,276.96 455.21,275.79 456.25,274.61 457.29,273.44 458.33,272.27 459.38,271.09 460.42,269.92 461.46,268.75 462.5,267.57 463.54,266.4 464.58,265.22 465.63,264.05 466.67,262.88 467.71,261.7 468.75,260.53 469.79,259.35 470.83,258.18 471.88,257.01 472.92,255.83 473.96,254.66 475,253.49 476.04,252.31 477.08,251.14 478.13,249.96 479.17,248.79 480.21,247.62 481.25,246.44 482.29,245.27 483.33,244.1 484.38,242.92 485.42,241.75 486.46,240.57 487.5,239.4 488.54,239.86 489.58,240.32 490.63,240.78 491.67,241.24 492.71,241.7 493.75,242.16 494.79,242.62 495.83,243.08 496.88,243.54 497.92,244 498.96,244.46 500,244.93 501.04,245.39 502.08,245.85 503.13,246.31 504.17,246.77 505.21,247.23 506.25,247.69 507.29,248.15 508.33,248.61 509.38,249.07 510.42,249.53 511.46,249.99 512.5,250.45 513.54,250.91 514.58,251.37 515.63,251.83 516.67,252.29 517.71,252.75 518.75,253.21 519.79,253.67 520.83,254.13 521.88,254.59 522.92,255.06 523.96,255.52 525,255.98 526.04,256.44 527.08,256.9 528.13,257.36 529.17,257.82 530.21,258.28 531.25,258.74 532.29,259.2 533.33,259.66 534.38,260.12 535.42,260.58 536.46,261.04 537.5,261.5 538.54,261.96 539.58,262.42 540.63,262.88 541.67,263.34 542.71,263.8 543.75,264.26 544.79,264.72 545.83,265.19 546.88,265.65 547.92,266.11 548.96,266.57 550,267.03 551.04,267.49 552.08,267.95 553.13,268.41 554.17,268.87 555.21,269.33 556.25,269.79 557.29,270.25 558.33,270.71 559.38,271.17 560.42,271.63 561.46,272.09 562.5,272.55 563.54,273.01 564.58,273.47 565.63,273.93 566.67,274.39 567.71,274.85 568.75,275.32 569.79,275.78 570.83,276.24 571.88,276.7 572.92,277.16 573.96,277.62 575,278.08 576.04,278.54 577.08,279 578.13,279.46 579.17,279.92 580.21,280.38 581.25,280.84 582.29,281.3 583.33,281.76 584.38,282.22 585.42,282.68 586.46,283.14 587.5,283.6 588.54,284.06 589.58,284.52 590.63,284.98 591.67,285.45 592.71,285.91 593.75,286.37 594.79,286.83 595.83,287.29 596.88,287.75 597.92,288.21 598.96,288.67 600,289.13 601.04,289.59 602.08,290.05 603.13,290.51 604.17,290.97 605.21,291.43 606.25,291.89 607.29,292.35 608.33,292.81 609.38,293.27 610.42,293.73 611.46,294.19 612.5,294.65 613.54,295.11 614.58,295.58 615.63,296.04 616.67,296.5 617.71,296.96 618.75,297.42 619.79,297.88 620.83,298.34 621.88,298.8 622.92,299.26 623.96,299.72 625,300.18 626.04,300.64 627.08,301.1 628.13,301.56 629.17,302.02 630.21,302.48 631.25,302.94 632.29,303.4 633.33,303.86 634.38,304.32 635.42,304.78 636.46,305.24 637.5,305.71 638.54,306.17 639.58,306.63 640.63,307.09 641.67,307.55 642.71,308.01 643.75,308.47 644.79,308.93 645.83,309.39 646.88,309.85 647.92,310.31 648.96,310.77 650,311.23 650,280" fill="#f2dfdf" stroke="none" stroke-width="2" stroke-linejoin="round"/><path d="M400 338 L401.04 336.83 L402.08 335.65 L403.13 334.48 L404.17 333.3 L405.21 332.13 L406.25 330.96 L407.29 329.78 L408.33 328.61 L409.38 327.44 L410.42 326.26 L411.46 325.09 L412.5 323.91 L413.54 322.74 L414.58 321.57 L415.63 320.39 L416.67 319.22 L417.71 318.05 L418.75 316.87 L419.79 315.7 L420.83 314.52 L421.88 313.35 L422.92 312.18 L423.96 311 L425 309.83 L426.04 308.65 L427.08 307.48 L428.13 306.31 L429.17 305.13 L430.21 303.96 L431.25 302.79 L432.29 301.61 L433.33 300.44 L434.38 299.26 L435.42 298.09 L436.46 296.92 L437.5 295.74 L438.54 294.57 L439.58 293.4 L440.63 292.22 L441.67 291.05 L442.71 289.87 L443.75 288.7 L444.79 287.53 L445.83 286.35 L446.88 285.18 L447.92 284 L448.96 282.83 L450 281.66 L451.04 280.48 L452.08 279.31 L453.13 278.14 L454.17 276.96 L455.21 275.79 L456.25 274.61 L457.29 273.44 L458.33 272.27 L459.38 271.09 L460.42 269.92 L461.46 268.75 L462.5 267.57 L463.54 266.4 L464.58 265.22 L465.63 264.05 L466.67 262.88 L467.71 261.7 L468.75 260.53 L469.79 259.35 L470.83 258.18 L471.88 257.01 L472.92 255.83 L473.96 254.66 L475 253.49 L476.04 252.31 L477.08 251.14 L478.13 249.96 L479.17 248.79 L480.21 247.62 L481.25 246.44 L482.29 245.27 L483.33 244.1 L484.38 242.92 L485.42 241.75 L486.46 240.57 L487.5 239.4 L488.54 239.86 L489.58 240.32 L490.63 240.78 L491.67 241.24 L492.71 241.7 L493.75 242.16 L494.79 242.62 L495.83 243.08 L496.88 243.54 L497.92 244 L498.96 244.46 L500 244.93 L501.04 245.39 L502.08 245.85 L503.13 246.31 L504.17 246.77 L505.21 247.23 L506.25 247.69 L507.29 248.15 L508.33 248.61 L509.38 249.07 L510.42 249.53 L511.46 249.99 L512.5 250.45 L513.54 250.91 L514.58 251.37 L515.63 251.83 L516.67 252.29 L517.71 252.75 L518.75 253.21 L519.79 253.67 L520.83 254.13 L521.88 254.59 L522.92 255.06 L523.96 255.52 L525 255.98 L526.04 256.44 L527.08 256.9 L528.13 257.36 L529.17 257.82 L530.21 258.28 L531.25 258.74 L532.29 259.2 L533.33 259.66 L534.38 260.12 L535.42 260.58 L536.46 261.04 L537.5 261.5 L538.54 261.96 L539.58 262.42 L540.63 262.88 L541.67 263.34 L542.71 263.8 L543.75 264.26 L544.79 264.72 L545.83 265.19 L546.88 265.65 L547.92 266.11 L548.96 266.57 L550 267.03 L551.04 267.49 L552.08 267.95 L553.13 268.41 L554.17 268.87 L555.21 269.33 L556.25 269.79 L557.29 270.25 L558.33 270.71 L559.38 271.17 L560.42 271.63 L561.46 272.09 L562.5 272.55 L563.54 273.01 L564.58 273.47 L565.63 273.93 L566.67 274.39 L567.71 274.85 L568.75 275.32 L569.79 275.78 L570.83 276.24 L571.88 276.7 L572.92 277.16 L573.96 277.62 L575 278.08 L576.04 278.54 L577.08 279 L578.13 279.46 L579.17 279.92 L580.21 280.38 L581.25 280.84 L582.29 281.3 L583.33 281.76 L584.38 282.22 L585.42 282.68 L586.46 283.14 L587.5 283.6 L588.54 284.06 L589.58 284.52 L590.63 284.98 L591.67 285.45 L592.71 285.91 L593.75 286.37 L594.79 286.83 L595.83 287.29 L596.88 287.75 L597.92 288.21 L598.96 288.67 L600 289.13 L601.04 289.59 L602.08 290.05 L603.13 290.51 L604.17 290.97 L605.21 291.43 L606.25 291.89 L607.29 292.35 L608.33 292.81 L609.38 293.27 L610.42 293.73 L611.46 294.19 L612.5 294.65 L613.54 295.11 L614.58 295.58 L615.63 296.04 L616.67 296.5 L617.71 296.96 L618.75 297.42 L619.79 297.88 L620.83 298.34 L621.88 298.8 L622.92 299.26 L623.96 299.72 L625 300.18 L626.04 300.64 L627.08 301.1 L628.13 301.56 L629.17 302.02 L630.21 302.48 L631.25 302.94 L632.29 303.4 L633.33 303.86 L634.38 304.32 L635.42 304.78 L636.46 305.24 L637.5 305.71 L638.54 306.17 L639.58 306.63 L640.63 307.09 L641.67 307.55 L642.71 308.01 L643.75 308.47 L644.79 308.93 L645.83 309.39 L646.88 309.85 L647.92 310.31 L648.96 310.77 L650 311.23" stroke="#b64f4f" stroke-width="2.5" fill="none" stroke-linejoin="round" stroke-linecap="round"/><line x1="400" y1="280" x2="650" y2="280" stroke="#273b45" stroke-width="1.5"/><text x="404" y="358" font-size="16" fill="#b64f4f" text-anchor="start"><tspan>−Wab²/L²</tspan></text><text x="646" y="331.23" font-size="16" fill="#b64f4f" text-anchor="end"><tspan>−Wa²b/L²</tspan></text><text x="525" y="380" font-size="15" fill="#647780" text-anchor="middle">point load at a from A</text><text x="360" y="410" font-size="15" fill="#647780" text-anchor="middle">Central load: WL/8 at each end</text></g></svg>